<svg width="668" height="55" viewBox="0 0 668 55" fill="none" xmlns="http://www.w3.org/2000/svg">
<path d="M4.24099 0H0V55H4.24099V0Z" fill="white"/>
<path d="M26.8614 0H22.6249V55H26.8614V0Z" fill="white"/>
<path d="M79.9358 0H75.6948V55H79.9358V0Z" fill="white"/>
<path d="M146.171 0H141.93V55H146.171V0Z" fill="white"/>
<path d="M155.631 0H151.39V55H155.631V0Z" fill="white"/>
<path d="M165.126 0H160.885V55H165.126V0Z" fill="white"/>
<path d="M175.644 0H171.403V55H175.644V0Z" fill="white"/>
<path d="M221.46 0H217.219V55H221.46V0Z" fill="white"/>
<path d="M254.763 0H250.522V55H254.763V0Z" fill="white"/>
<path d="M310.074 0H305.833V55H310.074V0Z" fill="white"/>
<path d="M320.957 0H316.716V55H320.957V0Z" fill="white"/>
<path d="M393.635 0H389.394V55H393.635V0Z" fill="white"/>
<path d="M406.558 0H402.317V55H406.558V0Z" fill="white"/>
<path d="M494.196 0H489.955V55H494.196V0Z" fill="white"/>
<path d="M504.874 0H500.633V55H504.874V0Z" fill="white"/>
<path d="M515.392 0H511.151V55H515.392V0Z" fill="white"/>
<path d="M526.07 0H521.828V55H526.07V0Z" fill="white"/>
<path d="M536.177 0H531.94V55H536.177V0Z" fill="white"/>
<path d="M580.363 0H576.122V55H580.363V0Z" fill="white"/>
<path d="M351.649 0H347.413V55H351.649V0Z" fill="white"/>
<path d="M287.043 0H282.806V55H287.043V0Z" fill="white"/>
<path d="M48.6691 0H31.5087V55H48.6691V0Z" fill="white"/>
<path d="M70.2349 0H53.0745V55H70.2349V0Z" fill="white"/>
<path d="M104.757 0H87.5963V55H104.757V0Z" fill="white"/>
<path d="M124.569 0H107.409V55H124.569V0Z" fill="white"/>
<path d="M202.259 0H185.099V55H202.259V0Z" fill="white"/>
<path d="M245.098 0H230.138V55H245.098V0Z" fill="white"/>
<path d="M274.165 0H259.205V55H274.165V0Z" fill="white"/>
<path d="M342.601 0H327.641V55H342.601V0Z" fill="white"/>
<path d="M374.68 0H359.72V55H374.68V0Z" fill="white"/>
<path d="M429.384 0H414.424V55H429.384V0Z" fill="white"/>
<path d="M449.599 0H434.639V55H449.599V0Z" fill="white"/>
<path d="M469.371 0H454.411V55H469.371V0Z" fill="white"/>
<path d="M569.115 0H554.155V55H569.115V0Z" fill="white"/>
<path d="M614.483 0H610.242V55H614.483V0Z" fill="white"/>
<path d="M602.006 0H587.046V55H602.006V0Z" fill="white"/>
<path d="M635.108 0H620.148V55H635.108V0Z" fill="white"/>
<path d="M668 0H653.04V55H668V0Z" fill="white"/>
</svg>
