<svg width="71" height="71" viewBox="0 0 71 71" fill="none" xmlns="http://www.w3.org/2000/svg">
<g clip-path="url(#clip0_115_43)">
<path d="M35.4999 55.5629C36.3519 55.5629 37.0435 54.8714 37.0435 54.0194V52.4758H37.9696C39.1179 52.4758 40.2292 52.2196 41.2787 51.7134C42.2727 51.2318 43.1617 50.5496 43.9211 49.6853C44.6743 48.8302 45.2639 47.8424 45.6652 46.7558C46.0912 45.6322 46.3042 44.4406 46.3042 43.2151C46.3042 41.9896 46.0912 40.798 45.6714 39.6775C45.2639 38.5847 44.6775 37.6 43.9241 36.7448C43.1648 35.8805 42.2757 35.1982 41.2818 34.7167C40.2291 34.2104 39.1178 33.9542 37.9694 33.9542H37.0435V21.6065H37.9696C38.6486 21.6065 39.3124 21.7609 39.9359 22.0603C40.5564 22.3628 41.1213 22.7919 41.6091 23.3475C42.1092 23.9217 42.5043 24.5823 42.779 25.3231C43.0784 26.1226 43.9613 26.5301 44.767 26.2307C45.5665 25.9313 45.974 25.0423 45.6746 24.2426C45.2671 23.1499 44.6806 22.1652 43.9273 21.31C43.1679 20.4457 42.2789 19.7634 41.285 19.2819C40.2292 18.7755 39.1179 18.5194 37.9696 18.5194H37.0435V16.9759C37.0435 16.1239 36.3519 15.4324 35.4999 15.4324C34.6479 15.4324 33.9564 16.1239 33.9564 16.9759V18.5194H33.0303C31.882 18.5194 30.7707 18.7757 29.7212 19.2819C28.7272 19.7634 27.8382 20.4457 27.0788 21.31C26.3224 22.1682 25.736 23.1529 25.3315 24.2426C24.9086 25.3632 24.6956 26.5548 24.6956 27.7803C24.6956 29.0058 24.9086 30.1974 25.3283 31.3179C25.7358 32.4107 26.3223 33.3954 27.0756 34.2506C27.835 35.1149 28.724 35.7972 29.718 36.2787C30.7707 36.785 31.882 37.0412 33.0303 37.0412H33.9564V49.3889H33.0303C32.3513 49.3889 31.6875 49.2345 31.064 48.9351C30.4435 48.6326 29.8786 48.2035 29.3908 47.6479C28.8907 47.0737 28.4956 46.4131 28.2209 45.6723C27.9215 44.8758 27.0417 44.4621 26.2329 44.7647C25.4334 45.0641 25.0259 45.9531 25.3253 46.7528C25.7328 47.8455 26.3192 48.8302 27.0726 49.6854C27.832 50.5497 28.721 51.232 29.7149 51.7135C30.7707 52.2199 31.882 52.476 33.0303 52.476H33.9564V54.0195C33.9566 54.8714 34.6479 55.5629 35.4999 55.5629ZM37.0435 37.0412H37.9696C38.6486 37.0412 39.3124 37.1955 39.9359 37.4949C40.5564 37.7975 41.1213 38.2265 41.6091 38.7822C42.1092 39.3564 42.5043 40.0169 42.7822 40.761C43.0693 41.5359 43.2174 42.3601 43.2174 43.2151C43.2174 44.0702 43.0693 44.8944 42.7759 45.6723C42.5012 46.4101 42.1061 47.0737 41.606 47.6479C41.1183 48.2035 40.5533 48.6326 39.9329 48.9351C39.3093 49.2345 38.6486 49.3889 37.9696 49.3889H37.0435V37.0412ZM33.0305 33.9542C32.3514 33.9542 31.6877 33.7999 31.0641 33.5005C30.4437 33.1979 29.8787 32.7689 29.391 32.2132C28.8909 31.639 28.4957 30.9785 28.2179 30.2344C27.9308 29.4595 27.7826 28.6353 27.7826 27.7803C27.7826 26.9252 27.9308 26.101 28.2241 25.3231C28.4989 24.5853 28.8939 23.9217 29.394 23.3475C29.8818 22.7919 30.4467 22.3628 31.0672 22.0603C31.6907 21.7609 32.3514 21.6065 33.0305 21.6065H33.9566V33.9542H33.0305Z" fill="black"/>
<path d="M69.4565 33.9541C68.6045 33.9541 67.913 34.6456 67.913 35.4976C67.913 36.6182 67.8544 37.7265 67.7463 38.81C67.6321 39.8997 67.4684 40.977 67.2524 42.0297C67.0394 43.0885 66.7708 44.1257 66.456 45.1351C66.1381 46.1476 65.7737 47.1448 65.3662 48.1109C64.9525 49.0803 64.5019 50.0249 63.9986 50.9478C63.5016 51.8646 62.9614 52.7567 62.375 53.6211C61.7946 54.4824 61.168 55.3159 60.5135 56.1154C59.8498 56.9148 59.1552 57.6835 58.4175 58.4183C57.6797 59.1529 56.9142 59.8507 56.1146 60.5112C55.3151 61.1687 54.4847 61.7954 53.6172 62.3757C52.756 62.9591 51.8607 63.4993 50.9471 63.9994C50.0272 64.4964 49.0826 64.9533 48.1132 65.3607C47.1439 65.7682 46.1469 66.1356 45.1405 66.4535C44.1248 66.7684 43.0876 67.0339 42.0288 67.25C40.9761 67.466 39.8988 67.6296 38.8153 67.7438C36.6328 67.9599 34.3546 67.9599 32.1845 67.7438C31.0948 67.6296 30.0175 67.466 28.9648 67.25C27.906 67.0369 26.8688 66.7684 25.8594 66.4535C24.8469 66.1356 23.8498 65.7712 22.8836 65.3638C21.9142 64.9501 20.9666 64.4963 20.0498 64.0024C19.133 63.4993 18.2377 62.959 17.3734 62.3725C16.5121 61.7921 15.6786 61.1656 14.8792 60.5111C14.0797 59.8473 13.3111 59.1528 12.5763 58.4151C11.8415 57.6774 11.1439 56.9118 10.4833 56.1122C9.83201 55.3157 9.20227 54.4823 8.62187 53.618C8.37183 53.2506 8.15883 52.8555 7.92731 52.4758H16.9782C17.8302 52.4758 18.5217 51.7843 18.5217 50.9323C18.5217 50.0803 17.8302 49.3888 16.9782 49.3888H4.63044C3.77844 49.3888 3.08691 50.0803 3.08691 50.9323V63.2801C3.08691 64.1321 3.77844 64.8236 4.63044 64.8236C5.48244 64.8236 6.17396 64.1321 6.17396 63.2801V55.4947C6.78214 56.3868 7.42114 57.2513 8.10949 58.0785C8.83183 58.9553 9.59426 59.798 10.3969 60.5975C11.1996 61.3969 12.0391 62.1625 12.9159 62.8879C13.7926 63.6103 14.7032 64.2925 15.6478 64.9284C16.5955 65.5674 17.5679 66.1601 18.5773 66.7095C19.5805 67.2559 20.6177 67.7529 21.6827 68.2035C22.7415 68.6511 23.8282 69.0493 24.9456 69.3982C26.0569 69.7408 27.1929 70.0341 28.3474 70.2717C29.5019 70.5063 30.6781 70.6885 31.8758 70.8089C33.0674 70.9323 34.2774 70.9971 35.4998 70.9971C36.7222 70.9971 37.9324 70.9323 39.1331 70.8119C40.3247 70.6915 41.5008 70.5093 42.6553 70.2748C43.8098 70.037 44.9427 69.7439 46.0633 69.4012C47.1715 69.0555 48.2611 68.6541 49.3231 68.2035C50.385 67.7528 51.4223 67.2559 52.4285 66.7095C53.4349 66.1631 54.4103 65.5704 55.3519 64.9344C56.2995 64.2954 57.2103 63.6132 58.0869 62.8878C58.9636 62.1654 59.8064 61.403 60.6058 60.6004C61.4053 59.7977 62.1709 58.9581 62.8963 58.0814C63.6187 57.2047 64.3009 56.2941 64.9367 55.3494C65.5757 54.4018 66.1684 53.4262 66.7118 52.423C67.2612 51.4198 67.7613 50.3794 68.2121 49.3144C68.6596 48.2556 69.0578 47.1689 69.4067 46.0515C69.7494 44.9402 70.0427 43.8042 70.2803 42.6498C70.5148 41.4952 70.697 40.3191 70.8174 39.1214C70.9347 37.9298 70.9996 36.7198 70.9996 35.4973C71 34.6455 70.3085 33.9541 69.4565 33.9541Z" fill="black"/>
<path d="M3.2536 32.1853C3.36777 31.0955 3.53143 30.0182 3.74747 28.9655C3.96047 27.9067 4.22903 26.8695 4.5439 25.8601C4.85877 24.8476 5.22298 23.8505 5.63046 22.8843C6.04416 21.915 6.49794 20.9673 6.99485 20.0505C7.49797 19.1337 8.03828 18.2384 8.62476 17.3741C9.20197 16.5128 9.83171 15.6794 10.4832 14.8799C11.1469 14.0804 11.8415 13.3118 12.5791 12.577C13.317 11.8423 14.0824 11.1446 14.8821 10.484C15.6815 9.82954 16.515 9.1998 17.3795 8.61955C18.2407 8.03612 19.136 7.49595 20.0496 6.99586C20.9695 6.49578 21.9173 6.04199 22.8834 5.63148C23.8496 5.22096 24.8498 4.8566 25.8562 4.54173C26.8718 4.22686 27.9091 3.96134 28.9678 3.7453C30.0205 3.52926 31.0978 3.3656 32.1814 3.25144C34.3639 3.0354 36.6421 3.0354 38.8121 3.25144C39.9019 3.3656 40.9792 3.52926 42.0319 3.7453C43.0907 3.9583 44.1279 4.22686 45.1373 4.54173C46.1498 4.85964 47.1469 5.224 48.1131 5.63148C49.0824 6.04518 50.0301 6.49896 50.9469 6.99282C51.8637 7.49595 52.759 8.03626 53.6233 8.62274C54.4846 9.20313 55.318 9.82969 56.1175 10.4842C56.917 11.1479 57.6856 11.8425 58.4204 12.5802C59.1551 13.318 59.8528 14.0835 60.5134 14.8831C61.1709 15.6826 61.7976 16.513 62.3778 17.3805C62.6279 17.7479 62.8379 18.1429 63.0724 18.5226H54.0215C53.1695 18.5196 52.478 19.2109 52.478 20.0629C52.478 20.9149 53.1695 21.6065 54.0215 21.6065H66.3693C67.2213 21.6065 67.9128 20.9149 67.9128 20.0629V7.71488C67.9128 6.86288 67.2213 6.17136 66.3693 6.17136C65.5173 6.17136 64.8258 6.86288 64.8258 7.71488V15.5002C64.2176 14.6081 63.5786 13.7437 62.8902 12.9164C62.1679 12.0397 61.4055 11.197 60.6028 10.3975C59.8001 9.59802 58.9606 8.82937 58.0808 8.10384C57.2041 7.38149 56.2935 6.69923 55.3489 6.06341C54.4012 5.42441 53.4288 4.83171 52.4194 4.28229C51.4162 3.73589 50.379 3.23885 49.314 2.78825C48.2552 2.34069 47.1685 1.94247 46.0511 1.5936C44.9398 1.25094 43.8037 0.957635 42.6493 0.720036C41.4947 0.485476 40.3186 0.303297 39.1209 0.182906C36.7347 -0.0578763 34.262 -0.0578763 31.8604 0.182906C30.6688 0.303297 29.4927 0.485476 28.3382 0.720036C27.1929 0.95778 26.057 1.24791 24.9395 1.5936C23.8312 1.93929 22.7416 2.34069 21.6797 2.78825C20.6177 3.23581 19.5805 3.73589 18.5743 4.28229C17.5679 4.82868 16.5955 5.42441 15.6509 6.06037C14.7063 6.69937 13.7956 7.38164 12.9189 8.10702C12.0391 8.82937 11.1994 9.5918 10.3969 10.3945C9.59425 11.1971 8.83183 12.0367 8.10644 12.9164C7.38409 13.7932 6.70183 14.7038 6.06601 15.6454C5.42701 16.593 4.83128 17.5654 4.28489 18.578C3.73849 19.5812 3.24145 20.6184 2.78766 21.6804C2.34314 22.7392 1.94189 23.8289 1.59605 24.9433C1.2534 26.0546 0.960091 27.1906 0.722492 28.345C0.487932 29.4996 0.305753 30.6757 0.185362 31.8734C0.064826 33.065 0 34.275 0 35.4975C0 36.3495 0.691526 37.041 1.54353 37.041C2.39552 37.041 3.08705 36.3495 3.08705 35.4975C3.08691 34.3769 3.14565 33.2688 3.2536 32.1853Z" fill="#33CCCC"/>
</g>
<defs>
<clipPath id="clip0_115_43">
<rect width="71" height="71" fill="white"/>
</clipPath>
</defs>
</svg>
